<?xml version="1.0" standalone="no"?>
<!DOCTYPE svg PUBLIC "-//W3C//DTD SVG 20010904//EN"
 "http://www.w3.org/TR/2001/REC-SVG-20010904/DTD/svg10.dtd">
<svg version="1.0" xmlns="http://www.w3.org/2000/svg"
 width="1350.000000pt" height="1350.000000pt" viewBox="0 0 1350.000000 1350.000000"
 preserveAspectRatio="xMidYMid meet">
<metadata>
Created by potrace 1.10, written by Peter Selinger 2001-2011
</metadata>
<g transform="translate(0.000000,1350.000000) scale(0.100000,-0.100000)"
fill="#000000" stroke="none">
<path d="M6512 9860 c-23 -17 -46 -30 -51 -30 -8 0 -259 -237 -396 -375 -44
-44 -141 -138 -216 -210 -218 -210 -600 -578 -768 -741 -86 -84 -191 -185
-235 -225 -43 -41 -169 -164 -280 -274 -111 -110 -210 -207 -221 -215 -14 -12
-55 -15 -204 -16 -239 -1 -300 -13 -353 -67 -21 -22 -38 -45 -38 -52 0 -6 14
-32 31 -56 16 -24 42 -61 57 -83 l26 -38 2 -327 c2 -179 -1 -352 -6 -385 -9
-56 -48 -126 -70 -126 -6 0 -9 41 -7 96 l2 96 -40 34 c-62 52 -75 48 -175 -46
-88 -83 -118 -97 -225 -105 -82 -7 -94 -5 -127 14 -21 13 -39 33 -42 47 -4 15
-6 153 -6 308 1 154 1 300 0 324 -1 49 46 156 86 193 29 27 30 47 4 91 -31 54
-127 80 -290 80 -114 1 -196 -9 -230 -27 -40 -21 -90 -72 -90 -92 0 -10 19
-41 43 -68 24 -28 49 -69 56 -93 8 -29 13 -149 15 -385 4 -391 1 -408 -71
-492 -24 -27 -43 -59 -43 -70 0 -28 56 -80 100 -93 102 -31 130 -33 398 -31
153 2 282 0 288 -3 13 -9 162 10 188 24 12 6 38 26 59 44 46 42 62 42 102 5
16 -16 59 -39 95 -51 57 -19 85 -22 230 -21 91 1 179 4 197 7 50 9 67 -7 70
-65 1 -45 7 -56 66 -128 36 -43 134 -143 217 -223 84 -80 178 -170 210 -200
31 -30 62 -65 69 -77 6 -13 17 -23 25 -23 7 0 92 -78 189 -172 97 -95 214
-209 259 -252 46 -44 151 -145 234 -225 82 -80 249 -240 369 -356 121 -115
249 -240 285 -276 88 -89 177 -162 230 -188 49 -24 60 -26 60 -11 0 6 -6 10
-13 10 -7 0 -21 16 -32 35 -10 20 -129 143 -263 273 -135 130 -282 273 -327
317 -86 85 -185 180 -539 520 -120 116 -260 251 -310 300 -170 166 -551 531
-596 571 -25 21 -50 44 -56 49 -7 6 -24 19 -38 29 -14 10 -26 26 -26 35 0 15
94 16 1100 13 l1101 -2 2 -1050 c1 -778 5 -1052 14 -1061 16 -16 38 22 52 91
14 66 5 1924 -10 1981 -5 19 -20 46 -34 59 -32 30 -31 39 5 99 l30 49 -25 43
c-32 56 -32 105 -2 147 43 57 65 68 150 70 94 3 141 -10 184 -50 44 -43 49
-83 18 -154 l-25 -57 20 -34 c26 -45 26 -80 -1 -88 -28 -9 -87 -63 -103 -94
-14 -26 -19 -471 -18 -1588 1 -368 1 -384 23 -443 12 -33 25 -60 29 -60 17 0
20 212 20 1135 l-1 976 1101 2 c972 2 1100 0 1100 -13 0 -8 -17 -25 -38 -38
-45 -28 -89 -69 -436 -406 -310 -302 -333 -324 -487 -470 -63 -61 -233 -225
-379 -367 -146 -141 -283 -274 -306 -295 -273 -261 -477 -462 -496 -489 -12
-19 -32 -38 -43 -44 -18 -8 -16 -10 11 -10 62 -2 134 53 359 274 84 83 188
184 232 225 82 79 333 322 755 731 139 135 293 283 343 330 49 46 149 144 222
217 73 72 137 132 141 132 16 0 152 182 152 203 0 4 -10 21 -21 37 -27 36 -20
55 28 71 21 6 55 23 75 37 l37 24 33 -24 c67 -49 153 -59 509 -58 393 2 407 3
467 46 83 60 88 61 143 9 l49 -46 82 3 c46 1 115 -3 153 -10 39 -6 118 -12
176 -12 143 0 187 18 292 119 92 88 124 149 133 251 12 125 -31 230 -142 347
-30 32 -62 66 -71 76 -9 9 -68 44 -130 78 -111 59 -213 142 -213 174 0 21 41
45 78 45 55 0 89 -26 141 -108 56 -87 104 -138 139 -147 19 -5 32 4 72 46 26
28 51 63 54 78 23 113 24 130 14 206 -12 85 -34 128 -83 166 -24 20 -41 23
-139 24 -73 1 -126 7 -155 18 -37 13 -59 14 -120 6 -42 -5 -98 -16 -125 -25
-65 -22 -172 -99 -187 -136 -6 -16 -25 -38 -41 -49 -36 -26 -58 -12 -58 35 0
42 -86 132 -138 145 -53 13 -662 21 -752 9 -43 -5 -95 -20 -121 -34 -54 -28
-81 -30 -100 -8 -7 9 -21 19 -31 23 -9 3 -57 51 -105 106 -49 55 -127 137
-173 182 -47 45 -146 142 -221 215 -75 73 -214 207 -309 298 -95 91 -207 199
-249 240 -43 41 -185 179 -316 305 -238 229 -397 382 -563 545 -135 131 -212
195 -270 224 -30 15 -57 25 -60 22 -3 -3 0 -6 6 -6 7 0 12 -5 12 -11 0 -19 60
-87 190 -214 67 -66 154 -152 194 -190 39 -39 190 -185 336 -325 334 -321 441
-425 544 -525 275 -269 767 -740 865 -828 53 -49 43 -59 -51 -50 -46 5 -110 8
-143 7 -33 -1 -179 -1 -325 0 -146 1 -382 -1 -525 -3 -143 -3 -451 -5 -685 -5
l-425 -1 -5 1052 c-3 578 -8 1054 -12 1058 -12 13 -26 -5 -42 -53 -13 -40 -16
-131 -16 -627 -1 -319 -2 -744 -3 -945 -2 -410 1 -393 -81 -473 -50 -50 -65
-73 -96 -152 -13 -33 -32 -73 -42 -90 -10 -16 -18 -37 -18 -45 0 -8 -14 -42
-30 -75 -16 -33 -30 -70 -30 -82 0 -13 -9 -32 -19 -42 -24 -24 -41 -55 -41
-75 0 -9 -13 -45 -30 -79 -16 -35 -30 -69 -30 -74 0 -6 -6 -16 -14 -22 -8 -7
-18 -27 -21 -44 -4 -18 -13 -39 -20 -47 -7 -8 -21 -41 -30 -72 -9 -32 -20 -60
-26 -63 -5 -3 -28 -38 -50 -78 -23 -40 -53 -82 -67 -95 -21 -20 -23 -29 -18
-65 15 -100 20 -92 -61 -92 -40 1 -75 4 -78 7 -10 10 4 30 65 95 l54 58 2 165
c1 181 2 185 70 282 25 35 33 55 28 72 -8 33 -52 72 -99 88 -22 7 -51 21 -64
30 l-23 16 28 59 c27 54 29 66 29 181 0 122 0 122 26 136 18 9 83 15 205 18
201 6 221 11 269 74 34 44 33 28 33 439 0 1030 -6 1572 -17 1611 -14 52 -37
75 -48 48 -5 -11 -8 -488 -8 -1061 0 -687 -3 -1044 -10 -1046 -5 -1 -161 1
-345 5 -404 10 -700 12 -1339 7 -356 -2 -486 0 -488 8 -5 13 -5 12 113 122
101 95 461 439 580 556 127 124 302 293 554 535 117 113 264 255 326 315 61
61 208 203 326 317 118 113 222 222 233 242 11 20 25 36 32 36 7 0 13 5 13 10
0 19 -35 10 -78 -20z m362 -2136 c9 -3 16 -13 16 -21 0 -15 20 -65 46 -116 8
-16 14 -33 14 -38 0 -5 14 -39 31 -76 16 -38 36 -81 43 -98 28 -66 43 -102 60
-140 10 -22 24 -53 30 -70 17 -40 39 -91 59 -137 23 -51 44 -101 63 -143 36
-85 45 -104 80 -180 45 -97 81 -133 138 -137 33 -2 42 -7 44 -24 3 -20 -1 -20
-248 -20 -246 0 -251 1 -248 21 2 15 13 21 43 26 67 9 85 24 85 70 0 23 -6 53
-13 67 -8 15 -21 43 -29 62 -8 19 -22 51 -30 70 -9 19 -19 43 -22 53 -5 15
-25 17 -236 17 -211 0 -231 -2 -236 -17 -3 -10 -12 -33 -20 -50 -8 -18 -22
-50 -31 -70 -9 -21 -20 -47 -26 -57 -47 -94 -24 -140 73 -148 27 -2 36 -8 38
-25 3 -21 3 -21 -180 -20 -164 2 -183 4 -186 19 -2 12 5 19 25 24 59 15 91 44
121 109 16 32 62 137 78 175 9 19 22 50 30 67 8 18 21 47 29 65 8 18 28 63 44
101 17 37 31 69 31 71 0 3 14 35 31 73 17 37 36 82 44 98 7 17 28 62 46 100
32 69 48 106 77 175 8 19 18 42 22 50 4 9 11 30 15 48 7 32 18 38 49 26z
m4279 -219 l1 -200 -22 -3 c-36 -5 -51 15 -50 65 0 24 -5 50 -11 56 -6 6 -11
19 -11 29 0 10 -28 47 -63 82 -56 57 -69 65 -121 76 -145 30 -266 -38 -266
-149 0 -80 38 -118 240 -241 205 -124 318 -224 336 -294 3 -14 10 -29 15 -32
18 -11 10 -139 -12 -188 -26 -60 -101 -138 -159 -166 -25 -12 -53 -26 -62 -31
-10 -5 -61 -9 -114 -9 -94 0 -162 14 -226 46 -46 24 -85 18 -103 -15 -14 -27
-50 -49 -62 -38 -8 9 -8 399 0 404 5 3 18 2 31 -1 19 -5 24 -14 29 -53 5 -45
19 -82 53 -145 22 -41 106 -97 169 -113 72 -19 105 -19 167 1 132 44 168 180
77 287 -33 39 -176 145 -229 170 -8 4 -28 16 -45 27 -16 11 -37 23 -45 27 -28
13 -129 93 -150 120 -41 52 -60 112 -60 187 1 46 6 78 15 90 8 11 15 25 15 32
0 7 19 34 42 59 112 123 294 150 445 67 12 -7 40 -12 62 -12 35 0 41 3 47 25
7 27 30 46 52 42 11 -2 14 -44 15 -202z m-5446 179 c83 -19 184 -52 200 -66
20 -17 42 -1 59 42 11 27 22 40 35 40 23 0 27 -18 33 -135 2 -49 9 -123 16
-163 10 -57 10 -75 0 -87 -10 -13 -15 -12 -36 3 -13 9 -24 25 -24 35 0 35 -39
104 -82 146 -125 123 -385 158 -528 70 -8 -5 -24 -13 -36 -18 -24 -11 -122
-116 -135 -145 -5 -12 -13 -28 -18 -36 -45 -75 -69 -239 -52 -353 12 -76 31
-141 52 -177 5 -8 13 -24 18 -36 13 -29 121 -144 146 -155 11 -5 27 -13 35
-17 50 -29 70 -37 110 -45 130 -26 209 -18 310 31 l55 27 3 196 2 195 -26 25
c-19 17 -40 25 -82 29 -56 5 -57 6 -57 35 l0 30 70 -5 c112 -8 305 -6 373 4
l63 9 -3 -34 c-3 -32 -5 -34 -48 -39 -53 -6 -71 -16 -94 -52 -15 -23 -17 -52
-15 -222 1 -108 0 -198 -2 -200 -15 -13 -174 -78 -246 -100 -78 -24 -297 -22
-394 4 -87 23 -141 42 -160 56 -8 5 -32 19 -53 29 -22 11 -71 52 -110 90 -128
126 -181 281 -157 453 7 48 19 101 26 117 8 17 23 50 34 75 28 63 105 155 176
212 84 68 155 101 275 129 97 22 182 23 267 3z m2537 0 c33 -8 75 -22 93 -30
17 -7 37 -14 45 -14 8 0 19 -5 25 -11 19 -19 63 -1 74 29 11 27 26 42 45 42 7
0 13 -42 17 -117 3 -65 13 -146 22 -181 22 -85 18 -108 -19 -105 -36 3 -46 17
-46 64 0 79 -70 164 -178 216 -75 36 -80 37 -192 37 -110 0 -118 -1 -182 -33
-112 -54 -206 -185 -222 -306 -30 -235 -30 -243 -13 -305 9 -33 17 -67 17 -75
0 -33 63 -142 108 -188 121 -124 342 -159 508 -81 62 29 170 124 185 162 7 17
16 22 44 22 38 0 47 -18 20 -40 -8 -7 -15 -16 -15 -21 0 -5 -8 -17 -17 -27
-10 -9 -27 -29 -38 -43 -26 -33 -131 -112 -175 -131 -84 -37 -140 -48 -250
-48 -76 0 -122 5 -147 15 -19 8 -41 15 -48 15 -7 0 -32 9 -56 20 -135 63 -232
155 -294 278 -33 66 -65 192 -65 257 0 99 44 233 112 341 124 196 418 315 642
258z m-5004 -31 c0 -19 -5 -23 -31 -23 -16 0 -52 -7 -78 -16 -42 -13 -50 -21
-60 -52 -9 -27 -11 -162 -9 -487 l3 -450 25 -11 c18 -8 81 -9 216 -4 181 7
193 9 232 34 35 22 102 102 102 122 0 4 10 26 22 50 23 47 52 58 61 24 6 -24
-9 -87 -23 -95 -6 -4 -10 -14 -10 -23 -1 -9 -9 -35 -20 -57 -11 -22 -19 -47
-20 -56 0 -9 -6 -32 -14 -50 l-14 -34 -469 0 c-461 0 -468 0 -468 20 0 17 8
21 65 25 68 6 106 23 116 53 3 9 5 227 6 483 0 335 -4 469 -12 479 -15 18 -96
45 -136 45 -34 0 -49 12 -41 33 4 10 72 13 281 13 l276 0 0 -23z m1482 9 c3
-4 8 -65 10 -137 3 -121 2 -130 -15 -130 -18 0 -46 58 -47 94 0 8 -10 30 -22
48 -36 51 -91 63 -307 63 l-180 0 -3 -211 c-2 -116 -1 -215 2 -219 3 -4 84 -5
182 -2 162 4 178 7 204 27 23 19 28 31 32 84 4 55 7 62 29 67 13 4 27 4 30 0
4 -3 7 -103 7 -222 l1 -215 -30 3 c-29 3 -30 6 -35 58 -10 106 -34 118 -252
122 l-168 4 0 -232 c0 -218 1 -232 20 -249 18 -16 39 -18 206 -16 231 3 261
13 337 113 14 18 28 44 32 58 9 37 42 73 60 66 21 -8 19 -59 -5 -103 -11 -21
-20 -45 -20 -54 0 -8 -3 -19 -7 -23 -5 -4 -17 -35 -28 -69 l-21 -62 -469 0
c-463 0 -470 0 -470 20 0 17 8 21 55 25 30 3 65 11 77 18 52 29 53 37 53 507
0 510 3 494 -85 520 -29 8 -65 15 -79 15 -20 0 -26 5 -26 23 l0 22 463 -3
c254 -2 465 -7 469 -10z m4503 -7 c0 -12 -8 -21 -20 -22 -73 -10 -125 -27
-141 -45 -18 -19 -19 -47 -22 -447 -2 -234 0 -450 3 -479 8 -65 33 -85 120
-92 52 -4 60 -8 60 -25 0 -20 -7 -20 -275 -20 -268 0 -275 0 -275 20 0 17 9
21 55 26 82 8 104 21 118 67 17 56 17 859 0 915 -13 44 -41 61 -120 73 -45 7
-63 21 -48 39 5 6 104 10 277 10 261 0 268 -1 268 -20z m1006 7 c9 -11 32
-249 24 -261 -20 -34 -60 6 -69 70 -8 58 -53 103 -116 119 -27 6 -116 10 -220
8 l-175 -3 -3 -209 c-1 -115 1 -213 5 -216 5 -4 85 -5 179 -2 160 4 174 6 200
27 25 20 30 32 34 87 5 60 6 63 33 66 38 5 42 -14 29 -127 -9 -77 -8 -116 3
-196 8 -55 10 -104 6 -108 -5 -5 -21 -7 -37 -5 -27 3 -29 6 -32 53 -6 112 -26
122 -247 126 l-170 3 0 -231 c0 -207 2 -234 17 -250 16 -15 38 -17 195 -15
210 3 251 12 308 67 39 38 75 95 75 118 0 16 41 57 57 57 21 0 27 -47 9 -75
-9 -13 -16 -30 -16 -37 -1 -7 -9 -31 -20 -53 -11 -22 -19 -48 -20 -57 0 -9 -4
-20 -10 -23 -5 -3 -10 -17 -10 -29 0 -13 -6 -28 -13 -34 -8 -7 -164 -10 -475
-9 l-462 2 0 22 c0 20 5 23 44 23 70 0 110 22 124 68 17 57 15 873 -2 922 -10
29 -21 38 -62 52 -27 9 -61 17 -76 18 -22 0 -28 5 -28 23 l0 22 457 -3 c252
-1 460 -6 464 -10z m-5168 -16 c5 -14 -41 -88 -69 -111 -10 -9 -49 -65 -79
-114 -5 -9 -18 -29 -28 -45 -46 -68 -80 -265 -67 -389 4 -45 6 -85 3 -89 -2
-5 -15 -8 -27 -8 -13 0 -29 -7 -37 -16 -7 -8 -26 -22 -42 -31 -17 -8 -51 -36
-76 -61 -65 -65 -97 -76 -219 -77 -102 0 -104 1 -128 28 -23 27 -25 36 -22
119 3 84 5 92 28 110 62 45 138 29 234 -51 30 -26 58 -41 75 -41 39 1 90 48
102 95 29 115 31 140 19 247 -14 118 -13 123 45 180 30 30 42 73 53 183 6 58
10 70 24 67 9 -1 19 2 23 8 3 6 45 10 95 10 67 0 89 -3 93 -14z m2540 5 c15
-6 27 -15 27 -20 0 -5 -23 -36 -51 -68 -57 -65 -139 -195 -139 -220 0 -9 -6
-24 -13 -32 -18 -20 -40 -175 -39 -266 0 -38 8 -91 17 -117 8 -26 13 -58 9
-72 -3 -13 -1 -27 5 -30 17 -11 13 -36 -4 -30 -8 4 -15 14 -15 24 0 9 -9 25
-20 35 -13 12 -18 25 -14 38 4 13 -1 26 -19 41 -24 21 -127 238 -127 269 0 9
-4 19 -10 22 -5 3 -10 13 -10 22 0 9 -6 24 -14 32 -8 9 -25 45 -39 81 -33 86
-35 93 -46 110 -15 26 -52 126 -54 149 -4 32 41 38 286 40 148 1 254 -2 270
-8z m1703 -83 c59 -64 64 -78 64 -183 -1 -11 2 -155 4 -320 6 -326 0 -378 -43
-421 -51 -51 -102 -42 -148 27 l-27 41 -2 379 c-1 299 2 383 12 397 7 9 14 24
14 34 0 16 67 77 86 78 5 0 24 -15 40 -32z m-601 -50 c0 -9 8 -23 18 -30 18
-13 20 -29 17 -123 -1 -11 1 -146 3 -300 4 -330 -2 -371 -61 -425 -21 -19 -44
-50 -51 -68 -13 -30 -12 -36 9 -64 18 -25 20 -34 11 -54 -10 -23 -15 -24 -105
-24 -52 0 -101 3 -109 6 -22 8 -9 40 28 68 65 50 119 109 142 155 12 25 23 50
23 55 0 5 6 17 14 25 13 14 10 22 -21 64 -47 63 -61 63 -175 0 -18 -10 -51
-32 -73 -49 -40 -31 -72 -46 -110 -51 -11 -1 -42 -6 -70 -12 -111 -21 -243 41
-309 144 -34 54 -61 129 -51 145 3 6 3 16 -2 23 -11 18 -14 175 -3 182 6 3 10
26 10 50 0 82 56 175 144 239 37 27 46 29 140 30 125 1 158 -10 219 -77 178
-192 188 -200 233 -165 58 46 81 114 85 256 1 18 6 22 23 20 12 -2 21 -10 21
-20z m-3015 -20 c25 -6 66 -27 92 -45 58 -42 180 -175 170 -185 -4 -4 -45 -13
-92 -21 -47 -7 -101 -22 -120 -32 -39 -20 -89 -72 -90 -94 0 -8 20 -38 45 -68
47 -58 51 -70 60 -199 6 -97 -3 -127 -47 -154 -55 -33 -147 -28 -233 14 -131
64 -201 165 -217 314 -22 207 25 339 152 428 39 27 75 44 94 45 17 1 42 4 56
8 28 8 66 5 130 -11z m-1198 -7 c14 0 40 -13 57 -27 47 -39 42 -71 -19 -128
-27 -25 -58 -46 -69 -46 -11 0 -23 -4 -26 -10 -3 -5 -29 -10 -56 -10 -42 0
-55 5 -80 29 -25 26 -29 37 -29 89 0 45 4 63 19 76 26 24 67 34 126 31 28 -2
62 -3 77 -4z m5547 -12 c38 -13 66 -61 52 -87 -18 -33 -96 -99 -130 -111 -49
-16 -116 -14 -131 4 -7 8 -19 15 -26 15 -8 0 -14 10 -14 24 0 13 -3 43 -6 68
-6 41 -3 48 22 72 27 24 36 26 115 26 47 0 100 -5 118 -11z m305 -81 c51 -188
123 -305 217 -353 18 -10 55 -35 82 -56 27 -22 54 -39 61 -39 7 0 21 -8 32
-18 10 -10 35 -28 55 -40 54 -33 119 -107 119 -136 0 -51 -74 -85 -142 -65
-42 12 -123 92 -153 150 -13 25 -40 60 -61 78 -46 41 -82 37 -134 -14 -31 -30
-40 -33 -75 -29 -68 9 -127 -24 -212 -118 -26 -29 -42 -37 -96 -48 -36 -6 -74
-9 -85 -6 -11 4 -31 2 -45 -3 -19 -8 -36 -6 -61 4 -53 23 -64 47 -65 147 0 78
2 90 22 108 44 42 122 39 186 -6 22 -16 60 -44 85 -62 40 -29 49 -31 68 -21
41 22 75 63 89 109 16 50 19 204 5 291 -8 56 -8 57 29 98 37 40 72 53 79 29z
m-2889 -635 c9 -9 27 -32 40 -52 36 -56 205 -221 236 -231 13 -4 14 -11 8 -27
-8 -22 -14 -23 -103 -23 -52 0 -101 3 -110 6 -22 8 -20 30 5 70 20 33 20 35 4
78 -10 25 -28 55 -41 67 -13 12 -24 27 -24 32 0 5 -11 22 -25 39 -38 45 -29
81 10 41z m-2479 -111 c21 -24 72 -68 112 -99 56 -42 72 -60 70 -76 -3 -22 -7
-22 -173 -22 l-170 0 2 28 c1 15 12 41 24 58 12 17 26 52 31 77 10 57 34 95
52 85 7 -5 30 -27 52 -51z"/>
<path d="M6774 7393 c-5 -28 -24 -80 -51 -140 -7 -18 -20 -47 -27 -65 -8 -18
-32 -70 -54 -115 -22 -45 -38 -84 -34 -87 8 -8 377 -7 385 0 6 6 -24 73 -54
124 -5 8 -12 22 -15 30 -3 8 -12 30 -19 48 -8 18 -21 47 -28 65 -8 17 -22 49
-31 70 -9 21 -16 46 -16 55 0 44 -47 56 -56 15z"/>
</g>
</svg>
